<?xml version="1.0" encoding="UTF-8"?>
<svg xmlns="http://www.w3.org/2000/svg" xmlns:xlink="http://www.w3.org/1999/xlink" viewBox="0 0 50 50" version="1.1" fill="#12529e"><g id="surface1" fill="#12529e"><path style=" " d="M 12.75 4 C 12.375 4.019531 12.003906 4.066406 11.625 4.125 C 10.105469 4.363281 8.570313 4.960938 7.125 6.125 C 6.8125 6.378906 6.640625 6.988281 6.71875 7.3125 C 6.796875 7.636719 6.9375 7.789063 7.0625 7.9375 C 7.3125 8.238281 7.589844 8.484375 7.9375 8.75 C 8.636719 9.28125 9.574219 9.863281 10.5 10.46875 C 11.425781 11.074219 12.34375 11.6875 12.9375 12.15625 C 13.097656 12.28125 13.148438 12.34375 13.25 12.4375 C 6.648438 20.363281 6.738281 27.613281 6.53125 34.8125 C 6.53125 34.824219 6.53125 34.832031 6.53125 34.84375 C 6.53125 34.882813 6.585938 34.832031 6.4375 34.9375 C 6.535156 34.867188 6.328125 34.984375 6.125 35.09375 C 5.921875 35.203125 5.65625 35.371094 5.34375 35.5625 C 4.71875 35.945313 3.945313 36.472656 3.15625 37.21875 C 1.578125 38.707031 0 41.0625 0 44.3125 C 0 44.789063 0.152344 45.199219 0.375 45.53125 C 0.597656 45.863281 0.839844 46.25 1.5625 46.25 C 2.300781 46.25 2.496094 45.925781 2.78125 45.6875 C 3.066406 45.449219 3.34375 45.183594 3.625 44.90625 C 4.191406 44.351563 4.867188 43.800781 5 43.75 C 5.507813 43.558594 5.667969 43.550781 5.9375 43.5625 C 6.207031 43.574219 6.644531 43.671875 7.28125 43.625 C 8.144531 43.5625 8.71875 43.242188 9.15625 42.9375 C 9.234375 42.980469 9.289063 43.046875 9.375 43.09375 C 9.5625 43.199219 9.757813 43.292969 9.96875 43.375 C 10.179688 43.457031 10.382813 43.542969 10.75 43.53125 C 12.085938 43.492188 13.109375 43.371094 13.5 43.34375 C 13.816406 43.324219 13.972656 43.390625 14.15625 43.53125 C 14.25 43.601563 14.347656 43.6875 14.4375 43.78125 C 14.527344 43.875 14.5625 43.96875 14.84375 44.15625 C 15.007813 44.265625 15.140625 44.351563 15.3125 44.4375 C 15.484375 44.523438 15.722656 44.644531 16.125 44.59375 C 16.527344 44.542969 16.914063 44.179688 17.03125 43.9375 C 17.148438 43.695313 17.160156 43.542969 17.1875 43.375 C 17.476563 41.550781 16.914063 39.851563 16.03125 38.5 C 15.226563 37.269531 14.15625 36.3125 13.09375 35.5625 C 13.140625 35.429688 13.203125 35.238281 13.4375 34.78125 C 15.667969 30.414063 18.628906 27.28125 21.1875 25.21875 C 21.40625 25.042969 21.539063 24.972656 21.75 24.8125 C 21.65625 24.964844 21.570313 25.113281 21.5 25.28125 C 21.449219 25.402344 21.417969 25.535156 21.40625 25.78125 C 21.402344 25.902344 21.410156 26.078125 21.5 26.28125 C 21.589844 26.484375 21.78125 26.707031 22 26.8125 C 22.089844 26.847656 22.183594 26.867188 22.28125 26.875 C 25.996094 27.480469 28.828125 26.453125 30.71875 25.1875 C 31.582031 24.609375 32.222656 23.992188 32.71875 23.46875 C 32.699219 23.554688 32.667969 23.644531 32.6875 23.84375 C 32.707031 24.042969 32.882813 24.53125 33.34375 24.71875 C 33.433594 24.753906 33.527344 24.773438 33.625 24.78125 C 37.722656 25.199219 40.664063 23.1875 41.96875 21.0625 C 42.863281 21.050781 43.785156 21.054688 44.78125 21.0625 C 44.792969 21.0625 44.800781 21.0625 44.8125 21.0625 C 45.28125 21.054688 46.097656 21.023438 46.9375 20.90625 C 47.765625 20.792969 48.585938 20.71875 49.3125 20.09375 L 49.3125 20.0625 C 49.316406 20.058594 49.339844 20.066406 49.34375 20.0625 C 49.597656 19.839844 49.824219 19.503906 49.875 19.125 C 49.925781 18.730469 49.804688 18.367188 49.65625 18.125 C 49.59375 18.023438 49.503906 18.019531 49.4375 17.9375 C 49.492188 17.84375 49.542969 17.84375 49.59375 17.71875 C 49.707031 17.441406 49.734375 17.054688 49.65625 16.71875 C 49.578125 16.382813 49.421875 16.109375 49.21875 15.84375 C 48.976563 15.523438 48.707031 15.25 48.3125 14.90625 C 48.03125 14.660156 47.667969 14.371094 47.3125 14.09375 C 47.308594 14.054688 47.347656 14.007813 47.34375 13.96875 C 47.3125 13.59375 47.246094 13.183594 47.09375 12.71875 C 46.789063 11.792969 46.21875 10.648438 45.28125 9.53125 C 43.40625 7.296875 40.03125 5.128906 34.5625 4.78125 C 30.265625 4.507813 27.308594 4.84375 25.28125 5.28125 C 23.269531 5.714844 22.035156 6.246094 21.8125 6.28125 C 21.808594 6.28125 21.785156 6.28125 21.78125 6.28125 C 21.691406 6.285156 21.410156 6.230469 21.0625 6.125 C 20.980469 6.097656 20.214844 5.75 19.3125 5.375 C 18.410156 5 17.277344 4.558594 15.96875 4.28125 C 14.988281 4.074219 13.878906 3.945313 12.75 4 Z M 12.875 6 C 13.78125 5.960938 14.679688 6.070313 15.53125 6.25 C 16.667969 6.492188 17.722656 6.871094 18.5625 7.21875 C 19.402344 7.566406 19.925781 7.863281 20.46875 8.03125 C 20.851563 8.148438 21.363281 8.332031 22.03125 8.25 C 23.039063 8.125 23.871094 7.648438 25.71875 7.25 C 27.566406 6.851563 30.300781 6.519531 34.4375 6.78125 C 39.441406 7.097656 42.214844 9.011719 43.75 10.84375 C 44.519531 11.757813 44.964844 12.664063 45.1875 13.34375 C 45.300781 13.683594 45.363281 13.960938 45.375 14.125 C 45.375 14.144531 45.367188 14.160156 45.375 14.15625 C 45.179688 14.585938 45.308594 15.09375 45.6875 15.375 C 46.1875 15.753906 46.648438 16.132813 47 16.4375 C 47.351563 16.742188 47.601563 17 47.625 17.03125 C 47.652344 17.066406 47.644531 17.039063 47.65625 17.0625 C 47.613281 17.101563 47.550781 17.160156 47.34375 17.40625 C 47.007813 17.796875 47.019531 18.375 47.375 18.75 C 47.121094 18.832031 47.023438 18.886719 46.65625 18.9375 C 45.949219 19.035156 45.203125 19.054688 44.78125 19.0625 C 43.535156 19.054688 42.386719 19.050781 41.3125 19.0625 C 41.269531 19.058594 41.230469 19.058594 41.1875 19.0625 C 38.761719 19.09375 36.867188 19.195313 35.625 19.375 C 35.34375 19.308594 35.046875 19.363281 34.8125 19.53125 C 33.886719 19.757813 33.003906 20.1875 32.28125 20.9375 C 32.121094 21.105469 32.070313 21.179688 31.9375 21.34375 C 31.804688 21.507813 31.621094 21.703125 31.40625 21.9375 C 30.976563 22.402344 30.375 22.976563 29.59375 23.5 C 28.328125 24.347656 26.46875 24.90625 24.15625 24.875 C 24.3125 24.667969 24.414063 24.507813 24.59375 24.28125 C 25.4375 23.21875 26.535156 22 26.71875 21.84375 C 27.0625 21.539063 27.15625 21.035156 26.941406 20.628906 C 26.726563 20.222656 26.257813 20.011719 25.8125 20.125 C 25.277344 20.265625 24.578125 20.578125 23.5625 21.15625 C 22.546875 21.734375 21.304688 22.550781 19.9375 23.65625 C 17.199219 25.863281 14.039063 29.210938 11.65625 33.875 C 11.34375 34.488281 11.121094 34.886719 11.03125 35.40625 C 10.984375 35.664063 10.996094 36 11.125 36.3125 C 11.253906 36.625 11.480469 36.863281 11.6875 37 C 12.667969 37.652344 13.691406 38.546875 14.375 39.59375 C 14.835938 40.296875 15.0625 41.078125 15.15625 41.875 C 14.714844 41.585938 14.132813 41.292969 13.375 41.34375 C 12.835938 41.378906 11.960938 41.492188 10.78125 41.53125 C 10.769531 41.527344 10.730469 41.515625 10.6875 41.5 C 10.597656 41.464844 10.476563 41.417969 10.34375 41.34375 C 10.078125 41.199219 9.765625 40.921875 9.84375 41 C 9.464844 40.625 8.863281 40.613281 8.46875 40.96875 C 8.046875 41.34375 7.960938 41.566406 7.15625 41.625 C 6.734375 41.65625 6.484375 41.578125 6.03125 41.5625 C 5.578125 41.546875 4.984375 41.636719 4.28125 41.90625 C 3.375 42.25 2.789063 42.910156 2.21875 43.46875 C 2.207031 43.480469 2.199219 43.488281 2.1875 43.5 C 2.429688 41.375 3.378906 39.777344 4.53125 38.6875 C 5.1875 38.066406 5.863281 37.585938 6.40625 37.25 C 6.679688 37.082031 6.902344 36.949219 7.09375 36.84375 C 7.285156 36.738281 7.378906 36.714844 7.59375 36.5625 C 8.054688 36.234375 8.511719 35.628906 8.53125 34.875 C 8.746094 27.414063 8.449219 20.882813 15.15625 13.1875 C 15.164063 13.179688 15.148438 13.164063 15.15625 13.15625 C 15.402344 12.851563 15.480469 12.351563 15.40625 12.0625 C 15.332031 11.765625 15.21875 11.597656 15.09375 11.4375 C 14.84375 11.121094 14.542969 10.875 14.1875 10.59375 C 13.476563 10.035156 12.523438 9.421875 11.59375 8.8125 C 10.679688 8.214844 9.777344 7.632813 9.1875 7.1875 C 10.105469 6.617188 11.03125 6.238281 11.96875 6.09375 C 12.273438 6.046875 12.574219 6.011719 12.875 6 Z M 40 14 C 39.449219 14 39 14.449219 39 15 C 39 15.550781 39.449219 16 40 16 C 40.550781 16 41 15.550781 41 15 C 41 14.449219 40.550781 14 40 14 Z M 38.96875 21.125 C 39.0625 21.121094 39.183594 21.128906 39.28125 21.125 C 38.34375 21.902344 36.96875 22.574219 35.25 22.71875 C 35.484375 22.273438 35.746094 21.800781 36 21.34375 C 36.675781 21.253906 37.644531 21.175781 38.96875 21.125 Z " fill="#12529e"/></g></svg>
