<?xml version="1.0" encoding="UTF-8"?>
<svg xmlns="http://www.w3.org/2000/svg" xmlns:xlink="http://www.w3.org/1999/xlink" viewBox="0 0 50 50" version="1.1" fill="#12529e"><g id="surface1" fill="#12529e"><path style=" " d="M 12.4375 4 C 10.675781 4.078125 8.828125 4.625 7.125 6 C 6.289063 6.671875 14.855469 10.972656 14.09375 11.84375 C 6.863281 20.125 7.128906 27.40625 6.90625 35.15625 C 6.894531 35.570313 6.691406 35.867188 6.375 36.09375 C 5.894531 36.4375 0.09375 38.898438 0.09375 45.03125 C 0.09375 45.585938 0.425781 46.03125 0.65625 46.03125 C 1.25 46.03125 2.792969 43.914063 3.875 43.5 C 5.140625 43.019531 5.457031 43.359375 6.5625 43.28125 C 7.699219 43.199219 8.195313 42.667969 8.5625 42.34375 C 8.804688 42.585938 9.816406 43.199219 10.21875 43.1875 C 11.558594 43.148438 12.570313 43 13.0625 42.96875 C 14.28125 42.886719 14.882813 43.839844 15.125 44 C 15.757813 44.421875 15.882813 44.414063 15.96875 43.875 C 16.480469 40.652344 14.050781 38.015625 11.8125 36.53125 C 11.398438 36.257813 11.492188 35.828125 12.125 34.59375 C 16.941406 25.167969 24.945313 21.167969 26.28125 20.8125 C 25.472656 21.511719 22.039063 25.609375 22.46875 25.8125 C 29.695313 26.988281 33.066406 21.789063 33.5 21.34375 C 34.179688 20.636719 34.984375 20.300781 35.9375 20.125 C 37.46875 19.84375 41.175781 19.6875 45.8125 19.71875 C 46.738281 19.703125 49.132813 19.597656 49.875 18.9375 C 50.402344 18.5 49.851563 17.984375 49.25 17.625 C 49.734375 17.054688 50.203125 16.746094 49.59375 15.9375 C 49.316406 15.570313 48.445313 14.8125 47.375 14 C 47.914063 13.316406 45.992188 5.503906 35.0625 4.8125 C 26.257813 4.253906 23.207031 6.21875 21.9375 6.375 C 21.546875 6.421875 21.109375 6.304688 20.71875 6.1875 C 19.820313 5.910156 16.3125 3.828125 12.4375 4 Z M 40 14 C 40.550781 14 41 14.449219 41 15 C 41 15.550781 40.550781 16 40 16 C 39.449219 16 39 15.550781 39 15 C 39 14.449219 39.449219 14 40 14 Z M 41.59375 20.75 C 38.996094 20.800781 37.070313 20.917969 36.125 21.09375 C 35.792969 21.15625 35.511719 21.234375 35.25 21.34375 C 34.640625 22.46875 34.117188 23.570313 34.25 23.625 C 37.753906 23.980469 40.289063 22.410156 41.59375 20.75 Z " fill="#12529e"/></g></svg>
