<svg xmlns="http://www.w3.org/2000/svg" viewBox="0 0 64 64">
  <path d="M20.027 2.023a1.977 1.977 0 0 0-1.382.704c-1.051 1.226-2.81 4.468-2.758 12.335 0 .036.015.063.02.098C13.323 18.465 12 22.781 12 28.016c0 2.515.664 4.738 1.969 6.64-.305.18-.57.422-.77.727-.187.277-.363.562-.55.87a2.832 2.832 0 0 0-.211 2.395 21.102 21.102 0 0 0-1.97 4.766C9.505 46.937 9 52.59 9 56.352v2.703C9 60.707 10.348 62 12 62h42c1.652 0 3-1.293 3-2.945v-2.703c0-3.762-.504-9.414-1.469-12.942a21.23 21.23 0 0 0-1.992-4.8 2.87 2.87 0 0 0-.238-2.434 16.272 16.272 0 0 0-.489-.781 2.352 2.352 0 0 0-.78-.739C53.335 32.754 54 30.531 54 28.016c0-5.282-1.313-9.594-3.902-12.883.004-.024.015-.047.015-.07.051-7.868-1.707-11.106-2.758-12.336a1.982 1.982 0 0 0-2.316-.54c-1.21.532-4.203 2.192-6.676 6.32A29.1 29.1 0 0 0 33 8.017c-1.879 0-3.664.175-5.36.492-2.472-4.13-5.464-5.79-6.68-6.32a1.958 1.958 0 0 0-.933-.165zm.13 1.993c.98.43 3.323 1.738 5.417 4.96-.656.184-1.304.387-1.93.622-.515.195-.773.77-.581 1.289.152.398.53.644.937.644.117 0 .238-.02.355-.062 2.56-.965 5.47-1.453 8.645-1.453 1.98 0 3.887.191 5.668.578a.98.98 0 0 0 .824-.203l.028-.028a.933.933 0 0 0 .21-.25c.008-.011.02-.02.028-.031 2.234-4.047 5-5.59 6.074-6.059.633.739 2.016 3.032 2.246 8.97a16.358 16.358 0 0 0-1.484-1.177 1 1 0 0 0-1.149 1.637C49.793 16.512 52 21.41 52 28.016c0 2.765-.95 5.097-2.824 6.941l-.239.223c-.105.097-.21.195-.324.289-.07.062-.144.12-.218.183-.106.082-.208.172-.317.254-.082.063-.172.125-.258.188-.101.07-.199.144-.3.215-.098.066-.204.132-.301.195-.094.062-.188.125-.282.184-.117.07-.234.136-.355.203-.082.047-.164.097-.25.144-.133.074-.27.145-.41.215-.07.035-.137.074-.207.11-.16.078-.324.156-.485.23-.05.023-.097.047-.148.066-.184.086-.371.164-.555.242a.893.893 0 0 0-.09.04c-.21.085-.425.167-.64.25h-.012c-5.094 1.886-10.695 1.828-10.8 1.828-.102.004-10.63.12-15.977-4.887-.059-.055-.121-.106-.18-.164C14.95 33.117 14 30.78 14 28.015c0-5.015 1.285-9.078 3.816-12.07a.987.987 0 0 0 .07-1.172c-.003-7.273 1.587-9.941 2.27-10.757zM25 18c-2.207 0-4 1.793-4 4a1 1 0 1 0 2 0c0-1.102.898-2 2-2 1.102 0 2 .898 2 2a1 1 0 1 0 2 0c0-2.207-1.793-4-4-4zm16 0c-2.207 0-4 1.793-4 4a1 1 0 1 0 2 0c0-1.102.898-2 2-2 1.102 0 2 .898 2 2a1 1 0 1 0 2 0c0-2.207-1.793-4-4-4zm-9.922 7c-.773 0-1.465.438-1.8 1.137a1.982 1.982 0 0 0 .242 2.113l1.918 2.395c.109.136.234.253.37.355-.464 1.234-1.8 2-3.687 2-1.691 0-2.457-.55-3.351-1.637a.998.998 0 0 0-1.407-.133.995.995 0 0 0-.133 1.407C24.398 34.055 25.676 35 28.121 35c2.129 0 3.86-.785 4.879-2.066C34.02 34.214 35.75 35 37.879 35c2.445 0 3.723-.945 4.89-2.363a.998.998 0 1 0-1.539-1.274C40.336 32.45 39.57 33 37.88 33c-1.887 0-3.223-.766-3.688-2 .137-.102.262-.215.371-.352l1.918-2.398a1.974 1.974 0 0 0 .239-2.113A1.97 1.97 0 0 0 34.922 25zm0 2h3.844l-1.645 2.059c-.09-.028-.18-.059-.277-.059-.098 0-.188.027-.277.055zm-15.902 9.328c.12 0 .238.047.34.145.289.28.593.539.906.793.05.039.101.082.152.125.324.254.664.492 1.012.718l.195.13c.34.218.688.421 1.047.616.074.04.156.083.235.122.347.183.703.355 1.062.52l.273.116c.352.153.707.297 1.063.434.105.039.207.074.316.11.344.124.688.245 1.035.355l.364.105c.277.082.554.16.828.235.2.05.394.101.59.148.215.055.426.102.636.148.266.059.532.118.793.168.145.028.286.055.426.079.36.066.703.128 1.047.18.047.007.094.015.14.019 1.856.281 3.415.375 4.368.406v1.996c-1.961-.062-6.406-.375-10.719-1.887-2.066-.73-3.87-1.648-5.37-2.734a15.125 15.125 0 0 1-1.403-1.113c-.274-.246-.328-.668-.133-1 .156-.262.316-.524.488-.778a.354.354 0 0 1 .258-.156h.05zm35.699.004a.342.342 0 0 1 .266.164c.152.23.3.465.441.703.16.266.164.598.027.852-.004.004-.004.004-.004.008a.944.944 0 0 1-.171.222 19.53 19.53 0 0 1-1.352 1.063C44.543 43.266 37.152 43.914 34 44v-2a39.028 39.028 0 0 0 4.355-.402c.06-.008.118-.02.176-.028.336-.05.676-.11 1.024-.175.133-.024.27-.047.402-.075a23.3 23.3 0 0 0 .844-.18 22.178 22.178 0 0 0 1.25-.305c.242-.062.48-.132.719-.202.164-.047.328-.094.492-.149.3-.093.605-.199.91-.308a16.842 16.842 0 0 0 1.383-.54c.12-.05.238-.105.36-.16.331-.148.663-.308.987-.476l.313-.172c.332-.18.66-.371.976-.574.09-.055.176-.11.262-.164.328-.219.649-.45.957-.688.067-.05.13-.105.192-.156.308-.246.609-.504.894-.777a.461.461 0 0 1 .379-.137zm1.285 3.914a19.194 19.194 0 0 1 1.442 3.691C54.52 47.297 55 52.724 55 56.352v2.703c0 .55-.45 1-1 1H12c-.55 0-1-.45-1-1v-2.703c0-3.63.48-9.055 1.398-12.41a19.238 19.238 0 0 1 1.418-3.649c.305.246.618.488.938.71 1.64 1.192 3.613 2.196 5.867 2.997 3.277 1.145 6.621 1.64 9.016 1.855A3.951 3.951 0 0 0 29 48c0 2.207 1.793 4 4 4s4-1.793 4-4c0-.79-.238-1.52-.633-2.14 3.918-.344 10.016-1.45 14.871-4.891.325-.227.617-.48.922-.723zm-19.305 5.77h.286C34.18 46.09 35 46.946 35 48c0 1.102-.898 2-2 2-1.102 0-2-.898-2-2 0-1.055.82-1.91 1.855-1.984zM13 54c-.55 0-1 .5-1 1.055v2c0 .55.45.945 1 .945a1 1 0 0 0 1-1v-2a1 1 0 0 0-1-1zm5 0a1 1 0 0 0-1 1v2a1 1 0 1 0 2 0v-2a1 1 0 0 0-1-1zm5 0a1 1 0 0 0-1 1v2a1 1 0 1 0 2 0v-2a1 1 0 0 0-1-1zm5 0a1 1 0 0 0-1 1v2a1 1 0 1 0 2 0v-2a1 1 0 0 0-1-1zm5 0a1 1 0 0 0-1 1v2a1 1 0 1 0 2 0v-2a1 1 0 0 0-1-1zm5 0a1 1 0 0 0-1 1v2a1 1 0 1 0 2 0v-2a1 1 0 0 0-1-1zm5 0a1 1 0 0 0-1 1v2a1 1 0 1 0 2 0v-2a1 1 0 0 0-1-1zm5 0a1 1 0 0 0-1 1v2a1 1 0 1 0 2 0v-2a1 1 0 0 0-1-1zm5 0a1 1 0 0 0-1 1v2a1 1 0 1 0 2 0v-2a1 1 0 0 0-1-1z">
</path>
</svg>
