<svg xmlns="http://www.w3.org/2000/svg" data-name="Layer 1" viewBox="0 0 64 64">
  <title>
    Icons8 RSL Colored Part 10
  </title>
  <path d="M38.75 9.92s4.08-7.58 7.5-6.92a17.32 17.32 0 0 1 2.36 12c-1.28 6.67-9.86-5.08-9.86-5.08zM17.19 16.75S15.5 5.51 19.75 3c0 0 7 3.16 7.75 8.25s-10.31 5.5-10.31 5.5z" fill="#ced8ed">
</path>
  <path d="M52.41 38.64a20 20 0 0 1 2.15 5A56.68 56.68 0 0 1 56 56.35v2.7a2 2 0 0 1-2 2H12a2 2 0 0 1-2-2v-2.7a56.68 56.68 0 0 1 1.43-12.67 20 20 0 0 1 2.09-4.93" fill="#c2cde7">
</path>
  <path d="M53 25c0 11.69-9 16-20 16s-20-3.25-20-16c0-8.84 9-16 20-16s20 7.16 20 16z" fill="#c2cde7">
</path>
  <path d="M13 56h40a3 3 0 0 1 3 3 2 2 0 0 1-2 2H12a2 2 0 0 1-2-2 3 3 0 0 1 3-3z" fill="#b5c4e0">
</path>
  <circle cx="33" cy="48" r="3" fill="#f9dd8f">
</circle>
  <path d="M52.44 36.69a1.86 1.86 0 0 1-.35 2.31q-.68.6-1.43 1.12C45.51 43.8 38.29 45 33.14 45h-.28a39.17 39.17 0 0 1-11.91-2 22.21 22.21 0 0 1-5.61-2.86 15.86 15.86 0 0 1-1.5-1.14 1.8 1.8 0 0 1-.33-2.25q.25-.41.51-.81a1.41 1.41 0 0 1 2.16-.19C21.86 41.2 33 41 33 41s11.14.19 16.79-5.26a1.42 1.42 0 0 1 2.17.2q.26.37.48.75zM32.22 30l-1.92-2.4a1 1 0 0 1 .78-1.6h3.84a1 1 0 0 1 .78 1.62L33.78 30a1 1 0 0 1-1.56 0z" fill="#ed7899">
</path>
  <path d="M22 23a1 1 0 0 0 1-1 2 2 0 0 1 4 0 1 1 0 0 0 2 0 4 4 0 0 0-8 0 1 1 0 0 0 1 1zM38 23a1 1 0 0 0 1-1 2 2 0 0 1 4 0 1 1 0 0 0 2 0 4 4 0 0 0-8 0 1 1 0 0 0 1 1zM31.44 30.65a2 2 0 0 0 .37.35c-.46 1.24-1.8 2-3.69 2a3.74 3.74 0 0 1-3.35-1.63 1 1 0 1 0-1.54 1.27A5.69 5.69 0 0 0 28.12 35 6.07 6.07 0 0 0 33 32.93 6.07 6.07 0 0 0 37.88 35a5.69 5.69 0 0 0 4.89-2.36 1 1 0 0 0-1.54-1.27A3.73 3.73 0 0 1 37.88 33c-1.89 0-3.23-.76-3.69-2a2 2 0 0 0 .37-.35l1.92-2.4A2 2 0 0 0 34.92 25h-3.84a2 2 0 0 0-1.56 3.25zM34.92 27l-1.64 2.06a.71.71 0 0 0-.55 0L31.08 27z" fill="#8d6c9f">
</path>
  <path d="M55.53 43.41a21 21 0 0 0-2-4.8 2.87 2.87 0 0 0-.24-2.44q-.24-.4-.49-.78a2.35 2.35 0 0 0-.78-.74A11.47 11.47 0 0 0 54 28c0-5.28-1.31-9.59-3.9-12.88v-.07c0-7.87-1.71-11.11-2.76-12.34A2 2 0 0 0 45 2.19a15.28 15.28 0 0 0-6.67 6.32 29.43 29.43 0 0 0-10.73 0A15.28 15.28 0 0 0 21 2.19a2 2 0 0 0-2.32.54c-1.09 1.27-2.84 4.46-2.8 12.33a.94.94 0 0 0 0 .1C13.32 18.47 12 22.78 12 28a11.47 11.47 0 0 0 2 6.64 2.34 2.34 0 0 0-.77.73c-.19.28-.36.56-.55.87a2.83 2.83 0 0 0-.21 2.39 21 21 0 0 0-2 4.77A57.54 57.54 0 0 0 9 56.35v2.7A3 3 0 0 0 12 62h42a3 3 0 0 0 3-2.95v-2.7a57.54 57.54 0 0 0-1.47-12.94zM17.82 15.95a1 1 0 0 0 .07-1.17c0-7.27 1.59-9.94 2.27-10.76a13 13 0 0 1 5.42 5c-.66.18-1.31.38-1.93.62a1 1 0 1 0 .71 1.87A24.49 24.49 0 0 1 33 10a26.77 26.77 0 0 1 5.67.58 1 1 0 0 0 .83-.21 1 1 0 0 0 .21-.25A13.47 13.47 0 0 1 45.83 4c.63.74 2 3 2.24 9a17.15 17.15 0 0 0-1.48-1.18 1 1 0 1 0-1.15 1.64C49.79 16.51 52 21.41 52 28a9.38 9.38 0 0 1-2.82 7l-.24.22-.32.29-.22.18-.32.25-.26.19-.3.22-.3.2-.28.18-.35.21-.25.14-.41.22-.21.11-.49.23-.15.07-.56.24h-.09l-.64.25A34.28 34.28 0 0 1 33 40c-.1 0-10.63.12-16-4.89l-.17-.11A9.38 9.38 0 0 1 14 28c0-5 1.28-9.06 3.82-12.05zM32.86 46h.29a2 2 0 1 1-.29 0zm-11.57-3.9a21.31 21.31 0 0 1-5.37-2.74 14.82 14.82 0 0 1-1.4-1.12.8.8 0 0 1-.13-1q.24-.39.49-.78a.34.34 0 0 1 .26-.16.49.49 0 0 1 .34.15c.29.28.59.54.9.79l.15.12c.33.25.66.49 1 .72l.2.13q.51.33 1 .61l.23.12q.53.28 1.07.52l.27.12c.35.15.7.3 1.06.43l.32.11 1 .35.36.11.83.23.59.15.63.15.8.17.42.08 1 .18h.14A37.9 37.9 0 0 0 32 42v2a37.79 37.79 0 0 1-10.72-1.89zM34 44v-2a38.05 38.05 0 0 0 4.35-.4h.18l1-.17.4-.08.84-.18.56-.13.69-.18.72-.2.49-.15.91-.31.4-.15 1-.4.36-.16q.5-.23 1-.48l.31-.17q.5-.27 1-.57l.26-.17c.33-.22.65-.44 1-.69l.19-.15c.31-.25.61-.51.89-.78a.47.47 0 0 1 .38-.13.35.35 0 0 1 .27.16q.23.35.44.71a.88.88 0 0 1 0 .85.78.78 0 0 1-.17.22c-.42.37-.88.73-1.35 1.06C44.54 43.27 37.15 43.91 34 44zm21 15.05a1 1 0 0 1-1 1H12a1 1 0 0 1-1-1v-2.7a55.35 55.35 0 0 1 1.4-12.41 19.09 19.09 0 0 1 1.42-3.65c.31.25.62.49.94.71a23.26 23.26 0 0 0 5.87 3 38.15 38.15 0 0 0 9 1.86 4 4 0 1 0 6.73 0c3.92-.35 10-1.45 14.87-4.89.32-.23.62-.48.92-.72a19 19 0 0 1 1.44 3.7A55.35 55.35 0 0 1 55 56.35z" fill="#8d6c9f">
</path>
  <path d="M38 54a1 1 0 0 0-1 1v2a1 1 0 0 0 2 0v-2a1 1 0 0 0-1-1zM43 54a1 1 0 0 0-1 1v2a1 1 0 0 0 2 0v-2a1 1 0 0 0-1-1zM48 54a1 1 0 0 0-1 1v2a1 1 0 0 0 2 0v-2a1 1 0 0 0-1-1zM52 55v2a1 1 0 0 0 2 0v-2a1 1 0 0 0-2 0zM28 54a1 1 0 0 0-1 1v2a1 1 0 0 0 2 0v-2a1 1 0 0 0-1-1zM33 54a1 1 0 0 0-1 1v2a1 1 0 0 0 2 0v-2a1 1 0 0 0-1-1zM23 54a1 1 0 0 0-1 1v2a1 1 0 0 0 2 0v-2a1 1 0 0 0-1-1zM18 54a1 1 0 0 0-1 1v2a1 1 0 0 0 2 0v-2a1 1 0 0 0-1-1zM13 54a1 1 0 0 0-1 1.05v2a1 1 0 0 0 1 .95 1 1 0 0 0 1-1v-2a1 1 0 0 0-1-1z" fill="#8d6c9f">
</path>
</svg>
